<svg width="18" height="21" viewBox="0 0 18 21" fill="none" xmlns="http://www.w3.org/2000/svg">
<path d="M8.0938 15.699C8.8083 15.595 9.5356 15.7 10.257 15.6833C11.9304 15.6431 13.2416 14.2288 14.5155 13.2689C15.1662 12.7792 16.078 12.844 16.6531 13.422C17.2921 14.0629 17.2921 15.1033 16.6531 15.7442C15.2771 17.1251 14.0621 18.4069 12.1973 19.1321C9.6102 20.1381 7.20955 19.6494 4.58905 19.1321C3.57521 18.931 2.64086 18.9192 1.61426 18.9192M8.0919 15.6582H9.5042C10.5131 15.6582 11.3277 14.9329 11.3277 13.924C11.3277 13.0858 10.7605 12.4155 9.9478 12.2114C8.7848 11.9199 7.6237 11.6912 6.40966 11.7196C4.48502 11.7668 3.13944 12.8385 1.61426 13.8602M12.9756 2.78881L13.1158 3.16767C13.6444 4.59622 14.7707 5.72255 16.1993 6.25116L16.5781 6.39135L16.1993 6.53154C14.7707 7.06015 13.6444 8.18648 13.1158 9.61503L12.9756 9.99393L12.8354 9.61503C12.3068 8.18648 11.1805 7.06015 9.7519 6.53154L9.373 6.39135L9.7519 6.25116C11.1805 5.72255 12.3068 4.59622 12.8354 3.16767L12.9756 2.78881ZM5.60498 1.33984C5.90856 2.33728 6.68913 3.11789 7.6865 3.42148C6.68913 3.72507 5.90856 4.50568 5.60498 5.50312C5.3014 4.50568 4.52083 3.72507 3.52344 3.42148C4.52083 3.11789 5.3014 2.33728 5.60498 1.33984Z" stroke="black" stroke-width="1.5" stroke-linecap="round" stroke-linejoin="round"/>
</svg>
